<svg width="441" height="148" viewBox="0 0 441 148" fill="none" xmlns="http://www.w3.org/2000/svg">
<path d="M198.48 15.2L170 60H161.808L151.248 15.2H159.824L167.824 49.632L189.84 15.2H198.48ZM207.877 60.448C204.549 60.448 201.626 59.8293 199.109 58.592C196.634 57.312 194.714 55.5413 193.349 53.28C191.984 51.0187 191.301 48.3947 191.301 45.408C191.301 41.6107 192.154 38.1973 193.861 35.168C195.61 32.1387 198.021 29.7707 201.093 28.064C204.208 26.3147 207.706 25.44 211.589 25.44C214.917 25.44 217.84 26.0587 220.357 27.296C222.874 28.5333 224.816 30.2827 226.181 32.544C227.546 34.8053 228.229 37.4293 228.229 40.416C228.229 44.2133 227.354 47.6267 225.605 50.656C223.856 53.6853 221.424 56.0747 218.309 57.824C215.237 59.5733 211.76 60.448 207.877 60.448ZM208.389 53.6C210.65 53.6 212.656 53.0667 214.405 52C216.197 50.8907 217.605 49.376 218.629 47.456C219.653 45.4933 220.165 43.2747 220.165 40.8C220.165 38.112 219.376 36.0213 217.797 34.528C216.218 32.992 214 32.224 211.141 32.224C208.88 32.224 206.853 32.7787 205.061 33.888C203.312 34.9547 201.925 36.4693 200.901 38.432C199.877 40.352 199.365 42.5493 199.365 45.024C199.365 47.712 200.154 49.824 201.733 51.36C203.312 52.8533 205.53 53.6 208.389 53.6ZM270.142 25.824L246.59 63.008C244.243 66.72 242.003 69.28 239.87 70.688C237.779 72.1387 235.219 72.864 232.19 72.864C230.483 72.864 228.797 72.5867 227.133 72.032C225.469 71.4773 224.168 70.752 223.229 69.856L227.197 64.032C228.776 65.4827 230.654 66.208 232.83 66.208C234.195 66.208 235.39 65.8453 236.414 65.12C237.438 64.4373 238.483 63.2427 239.55 61.536L240.638 59.872L232.574 25.824H240.574L246.333 51.168L262.142 25.824H270.142ZM307.548 25.824L300.764 60H293.148L293.852 56.48C290.865 59.1253 287.153 60.448 282.716 60.448C279.9 60.448 277.34 59.8507 275.036 58.656C272.775 57.4613 270.983 55.7333 269.66 53.472C268.337 51.168 267.676 48.48 267.676 45.408C267.676 41.6107 268.508 38.1973 270.172 35.168C271.879 32.096 274.183 29.7067 277.084 28C280.028 26.2933 283.313 25.44 286.94 25.44C292.401 25.44 296.284 27.2533 298.588 30.88L299.548 25.824H307.548ZM284.764 53.6C287.025 53.6 289.031 53.0667 290.78 52C292.572 50.8907 293.98 49.376 295.004 47.456C296.028 45.4933 296.54 43.2747 296.54 40.8C296.54 38.112 295.751 36.0213 294.172 34.528C292.593 32.992 290.375 32.224 287.516 32.224C285.255 32.224 283.228 32.7787 281.436 33.888C279.687 34.9547 278.3 36.4693 277.276 38.432C276.252 40.352 275.74 42.5493 275.74 45.024C275.74 47.712 276.529 49.824 278.108 51.36C279.687 52.8533 281.905 53.6 284.764 53.6ZM351.999 25.824L346.175 54.816C344.895 61.088 342.527 65.6533 339.071 68.512C335.615 71.4133 330.943 72.864 325.055 72.864C318.356 72.864 313.023 71.3067 309.055 68.192L313.215 62.176C314.538 63.328 316.287 64.2453 318.463 64.928C320.682 65.6533 323.05 66.016 325.567 66.016C329.236 66.016 332.052 65.2053 334.015 63.584C335.978 61.9627 337.279 59.488 337.919 56.16L338.239 54.496C335.167 57.1413 331.434 58.464 327.039 58.464C324.095 58.464 321.45 57.888 319.103 56.736C316.799 55.584 314.986 53.9413 313.663 51.808C312.383 49.6747 311.743 47.1787 311.743 44.32C311.743 40.8213 312.575 37.6427 314.239 34.784C315.903 31.8827 318.207 29.6 321.151 27.936C324.138 26.272 327.466 25.44 331.135 25.44C333.823 25.44 336.234 25.952 338.367 26.976C340.5 27.9573 342.122 29.4507 343.231 31.456L344.319 25.824H351.999ZM328.831 51.68C331.092 51.68 333.098 51.1893 334.847 50.208C336.639 49.184 338.026 47.7973 339.007 46.048C340.031 44.256 340.543 42.2507 340.543 40.032C340.543 37.6 339.754 35.7013 338.175 34.336C336.596 32.928 334.399 32.224 331.583 32.224C329.322 32.224 327.295 32.736 325.503 33.76C323.711 34.7413 322.303 36.128 321.279 37.92C320.298 39.6693 319.807 41.6533 319.807 43.872C319.807 46.2613 320.596 48.16 322.175 49.568C323.796 50.976 326.015 51.68 328.831 51.68ZM391.444 40.416C391.444 42.08 391.274 43.7013 390.933 45.28H363.797C363.925 50.8693 367.21 53.664 373.653 53.664C375.615 53.664 377.45 53.3653 379.157 52.768C380.863 52.128 382.314 51.2533 383.509 50.144L386.837 55.712C385.087 57.2907 382.975 58.4853 380.501 59.296C378.069 60.064 375.509 60.448 372.821 60.448C369.407 60.448 366.421 59.8293 363.861 58.592C361.343 57.3547 359.402 55.6053 358.036 53.344C356.671 51.04 355.989 48.3947 355.989 45.408C355.989 41.6107 356.821 38.1973 358.485 35.168C360.191 32.096 362.538 29.7067 365.525 28C368.554 26.2933 371.946 25.44 375.701 25.44C380.479 25.44 384.298 26.784 387.157 29.472C390.015 32.1173 391.444 35.7653 391.444 40.416ZM375.317 31.84C372.629 31.84 370.325 32.5653 368.405 34.016C366.527 35.4667 365.226 37.4507 364.501 39.968H384.085C384.127 37.408 383.338 35.424 381.717 34.016C380.138 32.5653 378.005 31.84 375.317 31.84ZM398.558 60.448C397.15 60.448 395.955 59.9787 394.974 59.04C394.035 58.1013 393.566 56.9067 393.566 55.456C393.566 53.8347 394.099 52.4907 395.166 51.424C396.232 50.3573 397.555 49.824 399.134 49.824C400.542 49.824 401.715 50.2933 402.654 51.232C403.592 52.1707 404.062 53.3653 404.062 54.816C404.062 56.48 403.507 57.8453 402.398 58.912C401.331 59.936 400.051 60.448 398.558 60.448ZM414.494 60.448C413.086 60.448 411.891 59.9787 410.91 59.04C409.971 58.1013 409.502 56.9067 409.502 55.456C409.502 53.8347 410.035 52.4907 411.102 51.424C412.168 50.3573 413.491 49.824 415.07 49.824C416.478 49.824 417.651 50.2933 418.59 51.232C419.528 52.1707 419.998 53.3653 419.998 54.816C419.998 56.48 419.443 57.8453 418.334 58.912C417.267 59.936 415.987 60.448 414.494 60.448ZM430.494 60.448C429.086 60.448 427.891 59.9787 426.91 59.04C425.971 58.1013 425.502 56.9067 425.502 55.456C425.502 53.8347 426.035 52.4907 427.102 51.424C428.168 50.3573 429.491 49.824 431.069 49.824C432.478 49.824 433.651 50.2933 434.59 51.232C435.528 52.1707 435.998 53.3653 435.998 54.816C435.998 56.48 435.443 57.8453 434.334 58.912C433.267 59.936 431.987 60.448 430.494 60.448ZM172.688 99.44C175.504 99.44 178.043 100.037 180.304 101.232C182.608 102.427 184.421 104.155 185.744 106.416C187.067 108.677 187.728 111.344 187.728 114.416C187.728 118.213 186.875 121.648 185.168 124.72C183.504 127.749 181.2 130.139 178.256 131.888C175.355 133.595 172.112 134.448 168.528 134.448C165.84 134.448 163.493 133.979 161.488 133.04C159.483 132.101 157.925 130.736 156.816 128.944L153.36 146.416H145.36L154.64 99.824H162.256L161.552 103.408C164.539 100.763 168.251 99.44 172.688 99.44ZM167.888 127.6C170.149 127.6 172.155 127.067 173.904 126C175.696 124.891 177.104 123.376 178.128 121.456C179.152 119.493 179.664 117.275 179.664 114.8C179.664 112.112 178.875 110.021 177.296 108.528C175.717 106.992 173.499 106.224 170.64 106.224C168.379 106.224 166.352 106.779 164.56 107.888C162.811 108.955 161.424 110.469 160.4 112.432C159.376 114.352 158.864 116.549 158.864 119.024C158.864 121.712 159.653 123.824 161.232 125.36C162.811 126.853 165.029 127.6 167.888 127.6ZM231.923 99.824L225.139 134H217.523L218.227 130.48C215.24 133.125 211.528 134.448 207.091 134.448C204.275 134.448 201.715 133.851 199.411 132.656C197.15 131.461 195.358 129.733 194.035 127.472C192.712 125.168 192.051 122.48 192.051 119.408C192.051 115.611 192.883 112.197 194.547 109.168C196.254 106.096 198.558 103.707 201.459 102C204.403 100.293 207.688 99.44 211.315 99.44C216.776 99.44 220.659 101.253 222.963 104.88L223.923 99.824H231.923ZM209.139 127.6C211.4 127.6 213.406 127.067 215.155 126C216.947 124.891 218.355 123.376 219.379 121.456C220.403 119.493 220.915 117.275 220.915 114.8C220.915 112.112 220.126 110.021 218.547 108.528C216.968 106.992 214.75 106.224 211.891 106.224C209.63 106.224 207.603 106.779 205.811 107.888C204.062 108.955 202.675 110.469 201.651 112.432C200.627 114.352 200.115 116.549 200.115 119.024C200.115 121.712 200.904 123.824 202.483 125.36C204.062 126.853 206.28 127.6 209.139 127.6ZM247.254 134.448C244.353 134.448 241.579 134.107 238.934 133.424C236.331 132.699 234.305 131.803 232.854 130.736L236.182 124.592C237.59 125.616 239.361 126.427 241.494 127.024C243.627 127.621 245.825 127.92 248.086 127.92C250.646 127.92 252.566 127.579 253.846 126.896C255.169 126.171 255.83 125.147 255.83 123.824C255.83 122.8 255.275 122.053 254.166 121.584C253.099 121.115 251.393 120.624 249.046 120.112C246.614 119.643 244.609 119.152 243.03 118.64C241.494 118.085 240.15 117.211 238.998 116.016C237.889 114.779 237.334 113.093 237.334 110.96C237.334 107.419 238.806 104.624 241.75 102.576C244.737 100.485 248.683 99.44 253.59 99.44C255.937 99.44 258.219 99.7173 260.438 100.272C262.657 100.784 264.47 101.488 265.878 102.384L262.934 108.528C261.526 107.632 259.926 106.971 258.134 106.544C256.385 106.117 254.614 105.904 252.822 105.904C250.305 105.904 248.385 106.288 247.062 107.056C245.782 107.824 245.142 108.827 245.142 110.064C245.142 111.173 245.697 111.984 246.806 112.496C247.958 112.965 249.729 113.456 252.118 113.968C254.507 114.437 256.47 114.949 258.006 115.504C259.542 116.016 260.865 116.869 261.974 118.064C263.083 119.259 263.638 120.88 263.638 122.928C263.638 126.597 262.145 129.435 259.158 131.44C256.171 133.445 252.203 134.448 247.254 134.448ZM295.703 86.512H303.703L294.231 134H286.231L295.703 86.512ZM321.627 134.448C318.299 134.448 315.376 133.829 312.859 132.592C310.384 131.312 308.464 129.541 307.099 127.28C305.734 125.019 305.051 122.395 305.051 119.408C305.051 115.611 305.904 112.197 307.611 109.168C309.36 106.139 311.771 103.771 314.843 102.064C317.958 100.315 321.456 99.44 325.339 99.44C328.667 99.44 331.59 100.059 334.107 101.296C336.624 102.533 338.566 104.283 339.931 106.544C341.296 108.805 341.979 111.429 341.979 114.416C341.979 118.213 341.104 121.627 339.355 124.656C337.606 127.685 335.174 130.075 332.059 131.824C328.987 133.573 325.51 134.448 321.627 134.448ZM322.139 127.6C324.4 127.6 326.406 127.067 328.155 126C329.947 124.891 331.355 123.376 332.379 121.456C333.403 119.493 333.915 117.275 333.915 114.8C333.915 112.112 333.126 110.021 331.547 108.528C329.968 106.992 327.75 106.224 324.891 106.224C322.63 106.224 320.603 106.779 318.811 107.888C317.062 108.955 315.675 110.469 314.651 112.432C313.627 114.352 313.115 116.549 313.115 119.024C313.115 121.712 313.904 123.824 315.483 125.36C317.062 126.853 319.28 127.6 322.139 127.6ZM352.765 99.824H360.765L353.981 134H345.981L352.765 99.824ZM358.589 94.192C357.181 94.192 356.029 93.7653 355.133 92.912C354.237 92.016 353.789 90.9493 353.789 89.712C353.789 88.2613 354.28 87.0453 355.261 86.064C356.285 85.0827 357.608 84.592 359.229 84.592C360.637 84.592 361.789 85.0187 362.685 85.872C363.581 86.6827 364.029 87.6853 364.029 88.88C364.029 90.4587 363.517 91.7387 362.493 92.72C361.512 93.7013 360.21 94.192 358.589 94.192ZM389.889 99.44C393.729 99.44 396.758 100.443 398.977 102.448C401.238 104.453 402.369 107.291 402.369 110.96C402.369 111.984 402.22 113.349 401.921 115.056L398.145 134H390.145L393.857 115.248C394.028 114.395 394.113 113.52 394.113 112.624C394.113 108.485 391.83 106.416 387.265 106.416C384.321 106.416 381.889 107.248 379.969 108.912C378.049 110.533 376.748 112.987 376.065 116.272L372.481 134H364.481L371.265 99.824H378.881L378.113 103.6C381.185 100.827 385.11 99.44 389.889 99.44Z" fill="black"/>
<path d="M100.868 51.3521C103.641 49.5898 106.133 47.454 108.304 45.0721C113.019 39.9083 116.201 33.5976 117.476 27.4055C118.741 21.2925 118.144 15.3026 115.344 10.6794C114.549 9.35225 113.551 8.13932 112.365 7.04944C108.963 3.9512 105.069 2.4746 101.149 2.43505C97.0316 2.40428 92.8567 3.9512 89.1652 6.89123C87.5919 8.14811 86.2955 9.59395 85.2891 11.1892C82.6962 15.2675 81.9096 20.3301 82.7666 25.6257C83.6323 31.0004 86.1856 36.6211 90.2551 41.7146C93.0852 45.2654 96.6449 48.5614 100.881 51.3433L100.868 51.3521ZM100.271 9.29951C103.369 9.29951 106.181 10.5564 108.207 12.5911C110.242 14.6258 111.499 17.4252 111.499 20.5279C111.499 23.6261 110.242 26.4387 108.207 28.4646C106.173 30.4994 103.373 31.7562 100.271 31.7562C97.1723 31.7562 94.3597 30.4994 92.3337 28.4646C90.299 26.4299 89.0421 23.6305 89.0421 20.5279C89.0421 17.4296 90.299 14.6171 92.3337 12.5911C94.3685 10.5564 97.1679 9.29951 100.271 9.29951ZM106.59 14.2084C104.977 12.5955 102.732 11.5847 100.271 11.5847C97.7963 11.5847 95.5638 12.5823 93.951 14.2084C92.3381 15.8212 91.3274 18.0669 91.3274 20.5279C91.3274 23.0021 92.325 25.2346 93.951 26.8474C95.5638 28.4602 97.8095 29.471 100.271 29.471C102.745 29.471 104.977 28.4734 106.59 26.8474C108.203 25.2346 109.214 22.9889 109.214 20.5279C109.209 18.0537 108.216 15.8212 106.59 14.2084ZM110.11 46.7025C107.649 49.392 104.797 51.8047 101.576 53.7603C101.189 54.0504 100.64 54.0899 100.2 53.8087C95.454 50.7895 91.4768 47.1595 88.339 43.2219C84.019 37.8033 81.29 31.7914 80.3627 25.9992C79.4178 20.128 80.3012 14.4852 83.2236 9.87961C84.3794 8.06461 85.8472 6.41222 87.649 4.98395C91.7668 1.70553 96.4823 -0.0303607 101.167 0.000401899C105.685 0.0399539 110.141 1.71432 114.008 5.24324C115.366 6.47814 116.5 7.87564 117.427 9.40938C120.569 14.5819 121.246 21.1915 119.871 27.8714C118.504 34.4809 115.124 41.2004 110.123 46.6805L110.11 46.7025Z" fill="#733439"/>
<path d="M20.8682 143.352C23.6412 141.59 26.133 139.454 28.304 137.072C33.0194 131.908 36.2012 125.598 37.4756 119.406C38.7413 113.293 38.1436 107.303 35.3442 102.679C34.5488 101.352 33.5512 100.139 32.3646 99.0494C28.9632 95.9512 25.0695 94.4746 21.1494 94.435C17.0316 94.4043 12.8567 95.9512 9.1652 98.8912C7.59191 100.148 6.29548 101.594 5.2891 103.189C2.69625 107.267 1.9096 112.33 2.76656 117.626C3.63231 123 6.18561 128.621 10.2551 133.715C13.0852 137.265 16.6449 140.561 20.8814 143.343L20.8682 143.352ZM20.2705 101.3C23.3688 101.3 26.1813 102.556 28.2073 104.591C30.242 106.626 31.4989 109.425 31.4989 112.528C31.4989 115.626 30.242 118.439 28.2073 120.465C26.1725 122.499 23.3731 123.756 20.2705 123.756C17.1723 123.756 14.3597 122.499 12.3337 120.465C10.299 118.43 9.04214 115.631 9.04214 112.528C9.04214 109.43 10.299 106.617 12.3337 104.591C14.3685 102.556 17.1679 101.3 20.2705 101.3ZM26.59 106.208C24.9772 104.596 22.7315 103.585 20.2705 103.585C17.7963 103.585 15.5638 104.582 13.951 106.208C12.3381 107.821 11.3274 110.067 11.3274 112.528C11.3274 115.002 12.325 117.235 13.951 118.847C15.5638 120.46 17.8095 121.471 20.2705 121.471C22.7447 121.471 24.9772 120.473 26.59 118.847C28.2029 117.235 29.2137 114.989 29.2137 112.528C29.2093 110.054 28.2161 107.821 26.59 106.208ZM30.1102 138.702C27.6492 141.392 24.797 143.805 21.5757 145.76C21.189 146.05 20.6397 146.09 20.2002 145.809C15.454 142.79 11.4768 139.16 8.339 135.222C4.01904 129.803 1.28996 123.791 0.362683 117.999C-0.58217 112.128 0.301158 106.485 3.22361 101.88C4.37941 100.065 5.84722 98.4122 7.64904 96.984C11.7668 93.7055 16.4823 91.9696 21.167 92.0004C25.6847 92.04 30.1409 93.7143 34.0082 97.2432C35.3662 98.4781 36.5 99.8756 37.4273 101.409C40.5695 106.582 41.2462 113.191 39.8707 119.871C38.504 126.481 35.1245 133.2 30.1233 138.681L30.1102 138.702Z" fill="#733439"/>
<path d="M100.5 52.5C100.5 52.5 25.5 47 59.5 94.5C93.5 142 20 144.5 20 144.5" stroke="#733439" stroke-width="3"/>
</svg>
